<?xml version="1.0" encoding="UTF-8"?>
<svg width="105px" height="125px" viewBox="0 0 105 125" xmlns="http://www.w3.org/2000/svg" xmlns:xlink="http://www.w3.org/1999/xlink" version="1.1">
 <!-- Generated by Pixelmator Pro 2.2 -->
 <path id="Path" d="M66 28 L74 28 C75.102 28 76 27.102 76 26 L76 10 C76 8.898 75.102 8 74 8 L62 8 C49.871 8 40 17.871 40 30 L40 40.16 26 40.16 C24.898 40.16 24 41.058 24 42.16 L24 58 C24 59.102 24.898 60 26 60 L38.609 60 38.609 90 C38.609 91.102 39.507 92 40.609 92 L57.308 92 C58.41 92 59.308 91.102 59.308 90 L59.308 60 69.828 60 C70.738 60 71.539 59.391 71.769 58.5 L75.941 42.5 C76.101 41.898 75.973 41.262 75.59 40.77 75.211 40.281 74.629 39.988 74.012 39.988 L60.012 39.988 60.012 33.988 C60.012 30.68 62.703 27.988 66.012 27.988 Z M58 44 L71.41 44 68.281 56 57.301 56 C56.2 56 55.301 56.898 55.301 58 L55.301 88 42.602 88 42.602 58 C42.602 56.898 41.704 56 40.602 56 L27.993 56 27.993 44.16 41.993 44.16 C43.095 44.16 43.993 43.262 43.993 42.16 L43.993 30 C43.993 20.078 52.063 12 61.993 12 L71.993 12 71.993 24 65.993 24 C60.481 24 55.993 28.488 55.993 34 L55.993 42 C55.993 43.102 56.892 44 57.993 44 Z" fill="#000000" fill-opacity="1" stroke="none"/>
</svg>
