<?xml version="1.0" encoding="UTF-8"?>
<svg width="100px" height="125px" viewBox="0 0 100 125" xmlns="http://www.w3.org/2000/svg" xmlns:xlink="http://www.w3.org/1999/xlink" version="1.1">
 <!-- Generated by Pixelmator Pro 2.2 -->
 <g id="group">
  <path id="Path" d="M29.571 73.197 C22.397 71.046 16.692 64.86 16.067 64.861 L16.063 64.861 C22.392 64.576 26.63 63.721 26.838 62.979 26.588 62.989 26.341 62.995 26.097 62.995 13.564 62.995 7.041 49.259 7.041 49.259 9.502 51.603 13.255 52.282 16.57 52.282 20.497 52.282 23.807 51.328 23.614 51.062 7.061 49.261 4.998 27.433 5 27.435 15.281 35.648 66.572 33.082 66.572 55.199 66.572 70.261 55.248 75.261 43.366 75.261 38.629 75.261 33.803 74.466 29.571 73.197 M73.757 25.679 C73.755 25.887 73.733 26.096 73.683 26.306 73.328 27.808 71.821 28.738 70.319 28.382 68.817 28.026 67.888 26.52 68.244 25.018 68.571 23.638 69.869 22.744 71.243 22.884 71.051 23.107 70.907 23.376 70.835 23.682 70.593 24.702 71.224 25.724 72.243 25.966 72.787 26.094 73.33 25.973 73.757 25.679 M75.183 26.662 C74.631 28.992 72.294 30.433 69.964 29.882 67.634 29.329 66.193 26.993 66.745 24.663 67.296 22.332 69.633 20.891 71.963 21.443 74.293 21.995 75.735 24.332 75.183 26.662 M95 25.912 L88.543 25.442 C88.507 25.366 88.471 25.291 88.433 25.216 L92.666 20.556 C92.261 20.414 91.81 20.289 91.31 20.185 89.405 19.798 87.24 20.007 85.336 20.752 81.464 16.646 75.754 14.382 69.728 15.147 61.363 16.21 55.045 22.771 53.931 30.739 L53.849 30.72 C53.531 32.96 53.111 35.117 52.605 37.196 53.218 37.425 53.823 37.659 54.412 37.904 58.924 39.777 62.294 41.928 64.715 44.479 67.613 47.534 69.083 51.141 69.083 55.199 69.083 59.185 68.341 62.745 66.879 65.778 65.505 68.629 63.493 71.028 60.9 72.91 56.518 76.091 50.455 77.772 43.366 77.772 38.603 77.772 33.583 77.021 28.85 75.602 28.254 75.424 27.652 75.213 27.045 74.976 24.32 77.029 21.694 78.736 19.333 80.123 35.58 90.15 54.204 83.626 54.905 83.375 84.148 72.96 88.783 44.556 89.358 39.822 89.418 39.326 89.494 38.835 89.582 38.343 89.869 36.744 90.438 33.139 90.163 30.976 90.135 30.756 90.099 30.539 90.063 30.321 92.192 29.286 94.079 27.619 95 25.912" fill="#000000" fill-opacity="1" stroke="none"/>
 </g>
</svg>
