<?xml version="1.0" encoding="UTF-8"?>
<svg width="105px" height="125px" viewBox="0 0 105 125" xmlns="http://www.w3.org/2000/svg" xmlns:xlink="http://www.w3.org/1999/xlink" version="1.1">
 <!-- Generated by Pixelmator Pro 2.2 -->
 <path id="Path" d="M66.668 8.332 L33.332 8.332 C19.547 8.332 8.332 19.547 8.332 33.332 L8.332 66.664 C8.332 80.449 19.547 91.664 33.332 91.664 L66.664 91.664 C80.449 91.664 91.664 80.449 91.664 66.664 L91.668 33.332 C91.668 19.547 80.453 8.332 66.668 8.332 Z M83.332 66.668 C83.332 75.859 75.855 83.336 66.664 83.336 L33.332 83.332 C24.141 83.332 16.664 75.855 16.664 66.664 L16.668 33.332 C16.668 24.141 24.145 16.664 33.336 16.664 L66.668 16.664 C75.859 16.664 83.336 24.141 83.336 33.332 Z M50 29.168 C38.512 29.168 29.168 38.516 29.168 50 29.168 61.488 38.516 70.832 50 70.832 61.488 70.832 70.832 61.484 70.832 50 70.832 38.512 61.488 29.168 50 29.168 Z M50 62.5 C43.105 62.5 37.5 56.895 37.5 50 37.5 43.105 43.105 37.5 50 37.5 56.894 37.5 62.5 43.105 62.5 50 62.5 56.895 56.894 62.5 50 62.5 Z M73.793 26.207 C74.539 27 75 28.082 75 29.168 75 30.25 74.539 31.336 73.793 32.125 73 32.875 71.914 33.332 70.832 33.332 69.746 33.332 68.664 32.871 67.875 32.125 67.125 31.332 66.668 30.25 66.668 29.168 66.668 28.082 67.125 27 67.875 26.211 69.457 24.668 72.207 24.668 73.793 26.207 Z" fill="#000000" fill-opacity="1" stroke="none"/>
</svg>
